<mxfile host="app.diagrams.net" modified="2021-07-28T10:12:51.723Z" agent="5.0 (Macintosh; Intel Mac OS X 10_15_7) AppleWebKit/537.36 (KHTML, like Gecko) Chrome/86.0.4240.193 Safari/537.36" etag="G_vgUoz30p4uS64ZUhF5" version="14.9.2" type="github">
  <diagram id="l9T2g0-95G9heTWVfEed" name="Page-1">
    <mxGraphModel dx="946" dy="536" grid="1" gridSize="10" guides="1" tooltips="1" connect="1" arrows="1" fold="1" page="1" pageScale="1" pageWidth="827" pageHeight="1169" math="0" shadow="0">
      <root>
        <mxCell id="0" />
        <mxCell id="1" parent="0" />
        <mxCell id="olM83sfeo5QYCfdLlvUQ-31" value="" style="edgeStyle=orthogonalEdgeStyle;rounded=0;orthogonalLoop=1;jettySize=auto;html=1;" edge="1" parent="1" source="olM83sfeo5QYCfdLlvUQ-17" target="olM83sfeo5QYCfdLlvUQ-19">
          <mxGeometry relative="1" as="geometry" />
        </mxCell>
        <mxCell id="olM83sfeo5QYCfdLlvUQ-32" style="edgeStyle=orthogonalEdgeStyle;rounded=0;orthogonalLoop=1;jettySize=auto;html=1;exitX=0.5;exitY=1;exitDx=0;exitDy=0;entryX=0.5;entryY=0;entryDx=0;entryDy=0;" edge="1" parent="1" source="olM83sfeo5QYCfdLlvUQ-17" target="olM83sfeo5QYCfdLlvUQ-18">
          <mxGeometry relative="1" as="geometry" />
        </mxCell>
        <mxCell id="olM83sfeo5QYCfdLlvUQ-17" value="" style="ellipse;whiteSpace=wrap;html=1;aspect=fixed;" vertex="1" parent="1">
          <mxGeometry x="325" y="320" width="50" height="50" as="geometry" />
        </mxCell>
        <mxCell id="olM83sfeo5QYCfdLlvUQ-33" style="edgeStyle=orthogonalEdgeStyle;rounded=0;orthogonalLoop=1;jettySize=auto;html=1;entryX=0.5;entryY=0;entryDx=0;entryDy=0;" edge="1" parent="1" source="olM83sfeo5QYCfdLlvUQ-18" target="olM83sfeo5QYCfdLlvUQ-20">
          <mxGeometry relative="1" as="geometry" />
        </mxCell>
        <mxCell id="olM83sfeo5QYCfdLlvUQ-18" value="" style="ellipse;whiteSpace=wrap;html=1;aspect=fixed;" vertex="1" parent="1">
          <mxGeometry x="325" y="390" width="50" height="50" as="geometry" />
        </mxCell>
        <mxCell id="olM83sfeo5QYCfdLlvUQ-19" value="" style="ellipse;whiteSpace=wrap;html=1;aspect=fixed;" vertex="1" parent="1">
          <mxGeometry x="240" y="320" width="50" height="50" as="geometry" />
        </mxCell>
        <mxCell id="olM83sfeo5QYCfdLlvUQ-20" value="" style="ellipse;whiteSpace=wrap;html=1;aspect=fixed;" vertex="1" parent="1">
          <mxGeometry x="325" y="460" width="50" height="50" as="geometry" />
        </mxCell>
        <mxCell id="olM83sfeo5QYCfdLlvUQ-36" style="edgeStyle=orthogonalEdgeStyle;rounded=0;orthogonalLoop=1;jettySize=auto;html=1;exitX=0.5;exitY=1;exitDx=0;exitDy=0;entryX=0.5;entryY=0;entryDx=0;entryDy=0;" edge="1" parent="1" source="olM83sfeo5QYCfdLlvUQ-21" target="olM83sfeo5QYCfdLlvUQ-22">
          <mxGeometry relative="1" as="geometry" />
        </mxCell>
        <mxCell id="olM83sfeo5QYCfdLlvUQ-21" value="" style="ellipse;whiteSpace=wrap;html=1;aspect=fixed;" vertex="1" parent="1">
          <mxGeometry x="445" y="320" width="50" height="50" as="geometry" />
        </mxCell>
        <mxCell id="olM83sfeo5QYCfdLlvUQ-22" value="" style="ellipse;whiteSpace=wrap;html=1;aspect=fixed;" vertex="1" parent="1">
          <mxGeometry x="445" y="390" width="50" height="50" as="geometry" />
        </mxCell>
        <mxCell id="olM83sfeo5QYCfdLlvUQ-23" value="" style="ellipse;whiteSpace=wrap;html=1;aspect=fixed;" vertex="1" parent="1">
          <mxGeometry x="510" y="320" width="50" height="50" as="geometry" />
        </mxCell>
        <mxCell id="olM83sfeo5QYCfdLlvUQ-30" style="edgeStyle=orthogonalEdgeStyle;rounded=0;orthogonalLoop=1;jettySize=auto;html=1;exitX=0.5;exitY=1;exitDx=0;exitDy=0;entryX=0.5;entryY=0;entryDx=0;entryDy=0;" edge="1" parent="1" source="olM83sfeo5QYCfdLlvUQ-25" target="olM83sfeo5QYCfdLlvUQ-17">
          <mxGeometry relative="1" as="geometry" />
        </mxCell>
        <mxCell id="olM83sfeo5QYCfdLlvUQ-25" value="" style="rounded=0;whiteSpace=wrap;html=1;fillColor=#dae8fc;strokeColor=#6c8ebf;" vertex="1" parent="1">
          <mxGeometry x="320" y="250" width="60" height="40" as="geometry" />
        </mxCell>
        <mxCell id="olM83sfeo5QYCfdLlvUQ-26" value="" style="rounded=0;whiteSpace=wrap;html=1;fillColor=#dae8fc;strokeColor=#6c8ebf;" vertex="1" parent="1">
          <mxGeometry x="380" y="250" width="60" height="40" as="geometry" />
        </mxCell>
        <mxCell id="olM83sfeo5QYCfdLlvUQ-35" style="edgeStyle=orthogonalEdgeStyle;rounded=0;orthogonalLoop=1;jettySize=auto;html=1;exitX=0.5;exitY=1;exitDx=0;exitDy=0;entryX=0.5;entryY=0;entryDx=0;entryDy=0;" edge="1" parent="1" source="olM83sfeo5QYCfdLlvUQ-27" target="olM83sfeo5QYCfdLlvUQ-21">
          <mxGeometry relative="1" as="geometry" />
        </mxCell>
        <mxCell id="olM83sfeo5QYCfdLlvUQ-27" value="" style="rounded=0;whiteSpace=wrap;html=1;fillColor=#dae8fc;strokeColor=#6c8ebf;" vertex="1" parent="1">
          <mxGeometry x="440" y="250" width="60" height="40" as="geometry" />
        </mxCell>
        <mxCell id="olM83sfeo5QYCfdLlvUQ-28" value="" style="rounded=0;whiteSpace=wrap;html=1;fillColor=#dae8fc;strokeColor=#6c8ebf;" vertex="1" parent="1">
          <mxGeometry x="500" y="250" width="60" height="40" as="geometry" />
        </mxCell>
      </root>
    </mxGraphModel>
  </diagram>
</mxfile>
